<mxfile host="app.diagrams.net" agent="Mozilla/5.0 (Linux; Android 10; K) AppleWebKit/537.36 (KHTML, like Gecko) Chrome/134.0.0.0 Mobile Safari/537.36" version="26.1.0">
  <diagram name="Pagina-1" id="NTOT7zcA5DZqMiWTS5Ma">
    <mxGraphModel dx="1069" dy="819" grid="1" gridSize="10" guides="1" tooltips="1" connect="1" arrows="1" fold="1" page="1" pageScale="1" pageWidth="827" pageHeight="1169" background="none" math="0" shadow="0">
      <root>
        <mxCell id="0" />
        <mxCell id="1" parent="0" />
        <mxCell id="dW5rp80q1rBm-bU9mozY-6" value="SQUADRA" style="whiteSpace=wrap;html=1;align=center;" vertex="1" parent="1">
          <mxGeometry x="200" y="80" width="80" height="40" as="geometry" />
        </mxCell>
        <mxCell id="dW5rp80q1rBm-bU9mozY-20" style="edgeStyle=none;curved=1;rounded=0;orthogonalLoop=1;jettySize=auto;html=1;entryX=0.5;entryY=0;entryDx=0;entryDy=0;fontSize=12;startSize=8;endSize=8;endArrow=none;startFill=0;" edge="1" parent="1" target="dW5rp80q1rBm-bU9mozY-19">
          <mxGeometry relative="1" as="geometry">
            <mxPoint x="240" y="570" as="sourcePoint" />
          </mxGeometry>
        </mxCell>
        <mxCell id="dW5rp80q1rBm-bU9mozY-7" value="GIOCATORE" style="whiteSpace=wrap;html=1;align=center;" vertex="1" parent="1">
          <mxGeometry x="200" y="520" width="80" height="40" as="geometry" />
        </mxCell>
        <mxCell id="dW5rp80q1rBm-bU9mozY-8" value="PARTITA" style="whiteSpace=wrap;html=1;align=center;fontStyle=0" vertex="1" parent="1">
          <mxGeometry x="480" y="80" width="80" height="40" as="geometry" />
        </mxCell>
        <mxCell id="dW5rp80q1rBm-bU9mozY-14" style="edgeStyle=none;curved=0;rounded=0;orthogonalLoop=1;jettySize=auto;html=1;fontSize=12;strokeColor=default;endArrow=none;startFill=0;" edge="1" parent="1" source="dW5rp80q1rBm-bU9mozY-13" target="dW5rp80q1rBm-bU9mozY-6">
          <mxGeometry relative="1" as="geometry" />
        </mxCell>
        <mxCell id="dW5rp80q1rBm-bU9mozY-13" value="Città" style="ellipse;whiteSpace=wrap;html=1;align=center;" vertex="1" parent="1">
          <mxGeometry x="280" y="40" width="80" height="40" as="geometry" />
        </mxCell>
        <mxCell id="dW5rp80q1rBm-bU9mozY-16" style="edgeStyle=none;curved=1;rounded=0;orthogonalLoop=1;jettySize=auto;html=1;fontSize=12;startSize=8;endSize=8;endArrow=none;startFill=0;" edge="1" parent="1" source="dW5rp80q1rBm-bU9mozY-12" target="dW5rp80q1rBm-bU9mozY-6">
          <mxGeometry relative="1" as="geometry">
            <mxPoint x="238.88" y="80" as="targetPoint" />
          </mxGeometry>
        </mxCell>
        <mxCell id="dW5rp80q1rBm-bU9mozY-12" value="Nome" style="ellipse;whiteSpace=wrap;html=1;align=center;" vertex="1" parent="1">
          <mxGeometry x="117.75999999999999" y="40" width="82.24" height="40" as="geometry" />
        </mxCell>
        <mxCell id="dW5rp80q1rBm-bU9mozY-18" style="edgeStyle=none;curved=1;rounded=0;orthogonalLoop=1;jettySize=auto;html=1;fontSize=12;startSize=8;endSize=8;endArrow=none;startFill=0;" edge="1" parent="1" source="dW5rp80q1rBm-bU9mozY-17" target="dW5rp80q1rBm-bU9mozY-6">
          <mxGeometry relative="1" as="geometry">
            <Array as="points">
              <mxPoint x="240" y="60" />
            </Array>
          </mxGeometry>
        </mxCell>
        <mxCell id="dW5rp80q1rBm-bU9mozY-17" value="Allenatore" style="ellipse;whiteSpace=wrap;html=1;align=center;" vertex="1" parent="1">
          <mxGeometry x="200" width="80" height="40" as="geometry" />
        </mxCell>
        <mxCell id="dW5rp80q1rBm-bU9mozY-19" value="Codice fiscale" style="ellipse;whiteSpace=wrap;html=1;align=center;fontStyle=4" vertex="1" parent="1">
          <mxGeometry x="40" y="520" width="80" height="40" as="geometry" />
        </mxCell>
        <mxCell id="dW5rp80q1rBm-bU9mozY-36" value="Nome" style="ellipse;whiteSpace=wrap;html=1;align=center;fontStyle=0" vertex="1" parent="1">
          <mxGeometry x="360" y="520" width="80" height="40" as="geometry" />
        </mxCell>
        <mxCell id="dW5rp80q1rBm-bU9mozY-37" value="Cognome" style="ellipse;whiteSpace=wrap;html=1;align=center;fontStyle=0" vertex="1" parent="1">
          <mxGeometry x="360" y="600" width="80" height="40" as="geometry" />
        </mxCell>
        <mxCell id="dW5rp80q1rBm-bU9mozY-38" value="Ruolo" style="ellipse;whiteSpace=wrap;html=1;align=center;fontStyle=0" vertex="1" parent="1">
          <mxGeometry x="40" y="600" width="80" height="40" as="geometry" />
        </mxCell>
        <mxCell id="dW5rp80q1rBm-bU9mozY-39" value="Città" style="ellipse;whiteSpace=wrap;html=1;align=center;fontStyle=0" vertex="1" parent="1">
          <mxGeometry x="280" y="640" width="80" height="40" as="geometry" />
        </mxCell>
        <mxCell id="dW5rp80q1rBm-bU9mozY-40" value="Data di nascita" style="ellipse;whiteSpace=wrap;html=1;align=center;fontStyle=0" vertex="1" parent="1">
          <mxGeometry x="117.76" y="640" width="80" height="40" as="geometry" />
        </mxCell>
        <mxCell id="dW5rp80q1rBm-bU9mozY-51" value="" style="endArrow=none;html=1;rounded=0;fontSize=12;startSize=8;endSize=8;curved=1;" edge="1" parent="1" source="dW5rp80q1rBm-bU9mozY-7" target="dW5rp80q1rBm-bU9mozY-36">
          <mxGeometry relative="1" as="geometry">
            <mxPoint x="310" y="530" as="sourcePoint" />
            <mxPoint x="470" y="530" as="targetPoint" />
            <Array as="points">
              <mxPoint x="320" y="540" />
            </Array>
          </mxGeometry>
        </mxCell>
        <mxCell id="dW5rp80q1rBm-bU9mozY-52" value="" style="endArrow=none;html=1;rounded=0;fontSize=12;startSize=8;endSize=8;curved=1;" edge="1" parent="1" source="dW5rp80q1rBm-bU9mozY-7" target="dW5rp80q1rBm-bU9mozY-37">
          <mxGeometry relative="1" as="geometry">
            <mxPoint x="300" y="580" as="sourcePoint" />
            <mxPoint x="460" y="580" as="targetPoint" />
          </mxGeometry>
        </mxCell>
        <mxCell id="dW5rp80q1rBm-bU9mozY-54" value="" style="endArrow=none;html=1;rounded=0;fontSize=12;startSize=8;endSize=8;curved=1;" edge="1" parent="1" source="dW5rp80q1rBm-bU9mozY-7" target="dW5rp80q1rBm-bU9mozY-38">
          <mxGeometry relative="1" as="geometry">
            <mxPoint x="230" y="690" as="sourcePoint" />
            <mxPoint x="390" y="690" as="targetPoint" />
          </mxGeometry>
        </mxCell>
        <mxCell id="dW5rp80q1rBm-bU9mozY-56" value="" style="endArrow=none;html=1;rounded=0;fontSize=12;startSize=8;endSize=8;curved=1;" edge="1" parent="1" source="dW5rp80q1rBm-bU9mozY-7" target="dW5rp80q1rBm-bU9mozY-39">
          <mxGeometry relative="1" as="geometry">
            <mxPoint x="190" y="700" as="sourcePoint" />
            <mxPoint x="350" y="700" as="targetPoint" />
          </mxGeometry>
        </mxCell>
        <mxCell id="dW5rp80q1rBm-bU9mozY-57" value="" style="endArrow=none;html=1;rounded=0;fontSize=12;startSize=8;endSize=8;curved=1;" edge="1" parent="1" source="dW5rp80q1rBm-bU9mozY-7" target="dW5rp80q1rBm-bU9mozY-40">
          <mxGeometry relative="1" as="geometry">
            <mxPoint x="210" y="690" as="sourcePoint" />
            <mxPoint x="370" y="690" as="targetPoint" />
          </mxGeometry>
        </mxCell>
        <mxCell id="dW5rp80q1rBm-bU9mozY-58" value="Numero" style="ellipse;whiteSpace=wrap;html=1;align=center;fontStyle=4" vertex="1" parent="1">
          <mxGeometry x="480" y="160" width="80" height="40" as="geometry" />
        </mxCell>
        <mxCell id="dW5rp80q1rBm-bU9mozY-59" value="" style="endArrow=none;html=1;rounded=0;fontSize=12;startSize=8;endSize=8;curved=1;" edge="1" parent="1" source="dW5rp80q1rBm-bU9mozY-58" target="dW5rp80q1rBm-bU9mozY-8">
          <mxGeometry relative="1" as="geometry">
            <mxPoint x="370" y="140" as="sourcePoint" />
            <mxPoint x="530" y="140" as="targetPoint" />
          </mxGeometry>
        </mxCell>
        <mxCell id="dW5rp80q1rBm-bU9mozY-60" value="GIORNATA" style="whiteSpace=wrap;html=1;align=center;fontStyle=0" vertex="1" parent="1">
          <mxGeometry x="680" y="80" width="80" height="40" as="geometry" />
        </mxCell>
        <mxCell id="dW5rp80q1rBm-bU9mozY-61" value="NumeroGirone" style="ellipse;whiteSpace=wrap;html=1;align=center;fontStyle=4" vertex="1" parent="1">
          <mxGeometry x="680" y="160" width="80" height="40" as="geometry" />
        </mxCell>
        <mxCell id="dW5rp80q1rBm-bU9mozY-62" value="Numero" style="ellipse;whiteSpace=wrap;html=1;align=center;fontStyle=0" vertex="1" parent="1">
          <mxGeometry x="630" y="260" width="80" height="40" as="geometry" />
        </mxCell>
        <mxCell id="dW5rp80q1rBm-bU9mozY-63" value="Girone" style="ellipse;whiteSpace=wrap;html=1;align=center;fontStyle=0" vertex="1" parent="1">
          <mxGeometry x="730" y="240" width="80" height="40" as="geometry" />
        </mxCell>
        <mxCell id="dW5rp80q1rBm-bU9mozY-64" value="" style="endArrow=none;html=1;rounded=0;fontSize=12;startSize=8;endSize=8;curved=1;" edge="1" parent="1" source="dW5rp80q1rBm-bU9mozY-61" target="dW5rp80q1rBm-bU9mozY-60">
          <mxGeometry relative="1" as="geometry">
            <mxPoint x="510" y="210" as="sourcePoint" />
            <mxPoint x="670" y="210" as="targetPoint" />
          </mxGeometry>
        </mxCell>
        <mxCell id="dW5rp80q1rBm-bU9mozY-65" value="" style="endArrow=none;html=1;rounded=0;fontSize=12;startSize=8;endSize=8;curved=1;" edge="1" parent="1" source="dW5rp80q1rBm-bU9mozY-61" target="dW5rp80q1rBm-bU9mozY-62">
          <mxGeometry relative="1" as="geometry">
            <mxPoint x="510" y="220" as="sourcePoint" />
            <mxPoint x="670" y="220" as="targetPoint" />
          </mxGeometry>
        </mxCell>
        <mxCell id="dW5rp80q1rBm-bU9mozY-66" value="" style="endArrow=none;html=1;rounded=0;fontSize=12;startSize=8;endSize=8;curved=1;" edge="1" parent="1" source="dW5rp80q1rBm-bU9mozY-61" target="dW5rp80q1rBm-bU9mozY-63">
          <mxGeometry relative="1" as="geometry">
            <mxPoint x="490" y="220" as="sourcePoint" />
            <mxPoint x="650" y="220" as="targetPoint" />
          </mxGeometry>
        </mxCell>
        <mxCell id="dW5rp80q1rBm-bU9mozY-73" value="ARBITRO" style="whiteSpace=wrap;html=1;align=center;" vertex="1" parent="1">
          <mxGeometry x="560" y="520" width="80" height="40" as="geometry" />
        </mxCell>
        <mxCell id="dW5rp80q1rBm-bU9mozY-74" value="Nome" style="ellipse;whiteSpace=wrap;html=1;align=center;fontStyle=0" vertex="1" parent="1">
          <mxGeometry x="680" y="520" width="80" height="40" as="geometry" />
        </mxCell>
        <mxCell id="dW5rp80q1rBm-bU9mozY-75" value="Cognome" style="ellipse;whiteSpace=wrap;html=1;align=center;fontStyle=0" vertex="1" parent="1">
          <mxGeometry x="680" y="600" width="80" height="40" as="geometry" />
        </mxCell>
        <mxCell id="dW5rp80q1rBm-bU9mozY-76" value="Città" style="ellipse;whiteSpace=wrap;html=1;align=center;fontStyle=0" vertex="1" parent="1">
          <mxGeometry x="600" y="640" width="80" height="40" as="geometry" />
        </mxCell>
        <mxCell id="dW5rp80q1rBm-bU9mozY-79" value="Regione" style="ellipse;whiteSpace=wrap;html=1;align=center;fontStyle=0" vertex="1" parent="1">
          <mxGeometry x="480" y="640" width="80" height="40" as="geometry" />
        </mxCell>
        <mxCell id="dW5rp80q1rBm-bU9mozY-80" value="" style="endArrow=none;html=1;rounded=0;fontSize=12;startSize=8;endSize=8;curved=1;" edge="1" parent="1" source="dW5rp80q1rBm-bU9mozY-74" target="dW5rp80q1rBm-bU9mozY-73">
          <mxGeometry relative="1" as="geometry">
            <mxPoint x="520" y="620" as="sourcePoint" />
            <mxPoint x="680" y="620" as="targetPoint" />
          </mxGeometry>
        </mxCell>
        <mxCell id="dW5rp80q1rBm-bU9mozY-81" value="" style="endArrow=none;html=1;rounded=0;fontSize=12;startSize=8;endSize=8;curved=1;" edge="1" parent="1" source="dW5rp80q1rBm-bU9mozY-73" target="dW5rp80q1rBm-bU9mozY-75">
          <mxGeometry relative="1" as="geometry">
            <mxPoint x="560" y="600" as="sourcePoint" />
            <mxPoint x="720" y="600" as="targetPoint" />
          </mxGeometry>
        </mxCell>
        <mxCell id="dW5rp80q1rBm-bU9mozY-82" value="" style="endArrow=none;html=1;rounded=0;fontSize=12;startSize=8;endSize=8;curved=1;" edge="1" parent="1" source="dW5rp80q1rBm-bU9mozY-73" target="dW5rp80q1rBm-bU9mozY-76">
          <mxGeometry relative="1" as="geometry">
            <mxPoint x="510" y="620" as="sourcePoint" />
            <mxPoint x="670" y="620" as="targetPoint" />
          </mxGeometry>
        </mxCell>
        <mxCell id="dW5rp80q1rBm-bU9mozY-83" value="" style="endArrow=none;html=1;rounded=0;fontSize=12;startSize=8;endSize=8;curved=1;" edge="1" parent="1" source="dW5rp80q1rBm-bU9mozY-79" target="dW5rp80q1rBm-bU9mozY-73">
          <mxGeometry relative="1" as="geometry">
            <mxPoint x="500" y="620" as="sourcePoint" />
            <mxPoint x="660" y="620" as="targetPoint" />
          </mxGeometry>
        </mxCell>
      </root>
    </mxGraphModel>
  </diagram>
</mxfile>
